<?xml version="1.0" ?><!DOCTYPE svg  PUBLIC '-//W3C//DTD SVG 1.1//EN'  'http://www.w3.org/Graphics/SVG/1.1/DTD/svg11.dtd'><svg enable-background="new 0 0 56.7 56.7" height="40px" id="Capa_1" version="1.1" viewBox="0 0 56.7 56.7" width="40px" xml:space="preserve" xmlns="http://www.w3.org/2000/svg" xmlns:xlink="http://www.w3.org/1999/xlink"><path d="   M41.4,21.6L41.4,21.6C39.8,20,39,18,39,15.9c-1,0-1.9,0.4-2.7,1.1l0,0c-1.5,1.5-3.9,1.5-5.3,0c-1.5-1.5-3.9-1.5-5.3,0l0,0   c-1.5,1.5-3.9,1.5-5.3,0c-0.7-0.7-1.7-1.1-2.7-1.1c0,2.1-0.8,4.1-2.3,5.7h0c-0.8,0.8-1.1,1.8-1.1,2.8v22.4c0,1.6,1.3,2.8,2.8,2.8   h22.7c1.6,0,2.8-1.3,2.8-2.8V24.3l0,0C42.5,23.3,42.1,22.3,41.4,21.6z" fill="#CF635E" stroke="#1E2C2D" stroke-linecap="round" stroke-linejoin="round" stroke-miterlimit="10" stroke-width="1.25"/><path d="   M14.2,9.9c0-1.6,1.3-2.8,2.8-2.8h22.7c1.6,0,2.8,1.3,2.8,2.8c0,0.8-0.3,1.5-0.8,2v0c-1.4,1.4-1.4,3.7,0,5.1   c-0.7-0.7-1.7-1.1-2.7-1.1c-1,0-1.9,0.4-2.7,1.1l0,0c-1.5,1.5-3.9,1.5-5.3,0c-1.5-1.5-3.9-1.5-5.3,0l0,0c-1.5,1.5-3.9,1.5-5.3,0   c-0.7-0.7-1.7-1.1-2.7-1.1c-1,0-1.9,0.4-2.7,1.1c1.4-1.4,1.4-3.7,0-5.1l0,0C14.5,11.4,14.2,10.7,14.2,9.9z" fill="#87C0C4" stroke="#1E2C2D" stroke-linecap="round" stroke-linejoin="round" stroke-miterlimit="10" stroke-width="1.25"/><line fill="none" stroke="#1E2C2D" stroke-linecap="round" stroke-linejoin="round" stroke-miterlimit="10" stroke-width="0.75" x1="15" x2="41.7" y1="11.9" y2="11.9"/><rect fill="#D9C27E" height="14.2" stroke="#1E2C2D" stroke-linecap="round" stroke-linejoin="round" stroke-miterlimit="10" stroke-width="1.25" width="28.3" x="14.2" y="26.2"/><g><path d="    M20.5,35.1c0,1,0.8,1.8,1.8,1.8s1.8-0.8,1.8-1.8v-5.3" fill="none" stroke="#1E2C2D" stroke-linecap="round" stroke-linejoin="round" stroke-miterlimit="10" stroke-width="1.25"/><g><polyline fill="none" points="     25.9,36.8 27.6,29.8 29.4,36.8    " stroke="#1E2C2D" stroke-linecap="round" stroke-linejoin="round" stroke-miterlimit="10" stroke-width="1.25"/><line fill="none" stroke="#1E2C2D" stroke-linecap="round" stroke-linejoin="round" stroke-miterlimit="10" stroke-width="1.25" x1="26.3" x2="29" y1="35.1" y2="35.1"/></g><polyline fill="none" points="    31.2,36.8 31.2,29.8 33,35.1 34.7,29.8 34.7,36.8   " stroke="#1E2C2D" stroke-linecap="round" stroke-linejoin="round" stroke-miterlimit="10" stroke-width="1.25"/></g><g><line fill="none" stroke="#1E2C2D" stroke-linecap="round" stroke-linejoin="round" stroke-miterlimit="10" stroke-width="0.75" x1="24.1" x2="17" y1="42.5" y2="49.6"/><line fill="none" stroke="#1E2C2D" stroke-linecap="round" stroke-linejoin="round" stroke-miterlimit="10" stroke-width="0.75" x1="22.7" x2="19.8" y1="46.8" y2="49.6"/><line fill="none" stroke="#1E2C2D" stroke-linecap="round" stroke-linejoin="round" stroke-miterlimit="10" stroke-width="0.75" x1="22.7" x2="17" y1="20.6" y2="26.2"/><line fill="none" stroke="#1E2C2D" stroke-linecap="round" stroke-linejoin="round" stroke-miterlimit="10" stroke-width="0.75" x1="22" x2="19.8" y1="24.1" y2="26.2"/></g></g></> </svg>